# 3ds Max Wavefront OBJ Exporter v0.97b - (c)2007 guruware
# File Created: 19.11.2011 14:20:24

#
# object Plane
#

v  -1968.5039 0.0000 1968.5039
v  1968.5039 0.0000 1968.5039
v  -1968.5039 0.0000 -1968.5039
v  1968.5039 0.0000 -1968.5039
# 4 vertices

vn 0.0000 1.0000 -0.0000
vn 0.0000 1.0000 -0.0000
vn 0.0000 1.0000 -0.0000
vn 0.0000 1.0000 -0.0000
vn 0.0000 1.0000 -0.0000
vn 0.0000 1.0000 -0.0000
# 6 vertex normals

vt 0.0000 0.0000 0.0000
vt 1.0000 0.0000 0.0000
vt 0.0000 1.0000 0.0000
vt 1.0000 1.0000 0.0000
# 4 texture coords

g Plane
f 1/1/1 2/2/2 4/4/3 
f 4/4/4 3/3/5 1/1/6 
# 2 faces

